#tb 0: 71/1000
0,          0,          0,        1,   134724, 0x53784ca9
0,          1,          1,        1,   134724, 0x14c345b7
0,          2,          2,        1,   134724, 0xe0d0dd51
0,          3,          3,        1,   134724, 0xd53b5610
0,          4,          4,        1,   134724, 0x7cbb8d47
0,          5,          5,        1,   134724, 0x875d67c4
0,          6,          6,        1,   134724, 0x9811c085
0,          7,          7,        1,   134724, 0x25f6d228
0,          8,          8,        1,   134724, 0x349495a0
0,          9,          9,        1,   134724, 0xd0d75311
0,         10,         10,        1,   134724, 0xb49cdfbb
0,         11,         11,        1,   134724, 0x9fa69518
0,         12,         12,        1,   134724, 0x28a1f58c
0,         13,         13,        1,   134724, 0xb8dab657
0,         14,         14,        1,   134724, 0x8c7e3b3b
0,         15,         15,        1,   134724, 0x37268acf
0,         16,         16,        1,   134724, 0xcce8ca02
0,         17,         17,        1,   134724, 0xe0fd0c28
0,         18,         18,        1,   134724, 0x5bdac906
0,         19,         19,        1,   134724, 0xdd850bf0
0,         20,         20,        1,   134724, 0x2002a228
0,         21,         21,        1,   134724, 0x633617ea
0,         22,         22,        1,   134724, 0x2a3ef337
0,         23,         23,        1,   134724, 0x507886c3
0,         24,         24,        1,   134724, 0x51c0f07b
0,         25,         25,        1,   134724, 0x5e73dce1
0,         26,         26,        1,   134724, 0x26acc6f0
0,         27,         27,        1,   134724, 0x360c4349
0,         28,         28,        1,   134724, 0xc7dbabd4
0,         29,         29,        1,   134724, 0x671bbf66
0,         30,         30,        1,   134724, 0x4d44df79
0,         31,         31,        1,   134724, 0x69eade5b
0,         32,         32,        1,   134724, 0x2b1bca82
0,         33,         33,        1,   134724, 0x8b16af47
0,         34,         34,        1,   134724, 0xb59fa1bd
0,         35,         35,        1,   134724, 0x2ec17c24
